<svg id="visual" viewBox="0 0 900 100" width="900" height="100" xmlns="http://www.w3.org/2000/svg" xmlns:xlink="http://www.w3.org/1999/xlink" version="1.1"><rect x="0" y="0" width="900" height="100" fill="#FFFDD0"></rect><path d="M0 56L10.7 57.2C21.3 58.3 42.7 60.7 64.2 61C85.7 61.3 107.3 59.7 128.8 58.7C150.3 57.7 171.7 57.3 193 60.8C214.3 64.3 235.7 71.7 257 70.3C278.3 69 299.7 59 321.2 56C342.7 53 364.3 57 385.8 58.3C407.3 59.7 428.7 58.3 450 58.3C471.3 58.3 492.7 59.7 514.2 62.5C535.7 65.3 557.3 69.7 578.8 71.2C600.3 72.7 621.7 71.3 643 69.3C664.3 67.3 685.7 64.7 707 62.3C728.3 60 749.7 58 771.2 57.3C792.7 56.7 814.3 57.3 835.8 59.8C857.3 62.3 878.7 66.7 889.3 68.8L900 71L900 0L889.3 0C878.7 0 857.3 0 835.8 0C814.3 0 792.7 0 771.2 0C749.7 0 728.3 0 707 0C685.7 0 664.3 0 643 0C621.7 0 600.3 0 578.8 0C557.3 0 535.7 0 514.2 0C492.7 0 471.3 0 450 0C428.7 0 407.3 0 385.8 0C364.3 0 342.7 0 321.2 0C299.7 0 278.3 0 257 0C235.7 0 214.3 0 193 0C171.7 0 150.3 0 128.8 0C107.3 0 85.7 0 64.2 0C42.7 0 21.3 0 10.7 0L0 0Z" fill="#fffdd0"></path><path d="M0 47L10.7 47.7C21.3 48.3 42.7 49.7 64.2 50.7C85.7 51.7 107.3 52.3 128.8 52C150.3 51.7 171.7 50.3 193 50.7C214.3 51 235.7 53 257 55.7C278.3 58.3 299.7 61.7 321.2 62.2C342.7 62.7 364.3 60.3 385.8 60.2C407.3 60 428.7 62 450 61C471.3 60 492.7 56 514.2 53.5C535.7 51 557.3 50 578.8 47.8C600.3 45.7 621.7 42.3 643 42C664.3 41.7 685.7 44.3 707 48.8C728.3 53.3 749.7 59.7 771.2 61.7C792.7 63.7 814.3 61.3 835.8 58C857.3 54.7 878.7 50.3 889.3 48.2L900 46L900 0L889.3 0C878.7 0 857.3 0 835.8 0C814.3 0 792.7 0 771.2 0C749.7 0 728.3 0 707 0C685.7 0 664.3 0 643 0C621.7 0 600.3 0 578.8 0C557.3 0 535.7 0 514.2 0C492.7 0 471.3 0 450 0C428.7 0 407.3 0 385.8 0C364.3 0 342.7 0 321.2 0C299.7 0 278.3 0 257 0C235.7 0 214.3 0 193 0C171.7 0 150.3 0 128.8 0C107.3 0 85.7 0 64.2 0C42.7 0 21.3 0 10.7 0L0 0Z" fill="#dccc96"></path><path d="M0 53L10.7 49.8C21.3 46.7 42.7 40.3 64.2 38.5C85.7 36.7 107.3 39.3 128.8 41.7C150.3 44 171.7 46 193 43.8C214.3 41.7 235.7 35.3 257 34.8C278.3 34.3 299.7 39.7 321.2 41.3C342.7 43 364.3 41 385.8 42C407.3 43 428.7 47 450 46.5C471.3 46 492.7 41 514.2 39.7C535.7 38.3 557.3 40.7 578.8 43.2C600.3 45.7 621.7 48.3 643 49.7C664.3 51 685.7 51 707 49.8C728.3 48.7 749.7 46.3 771.2 43.2C792.7 40 814.3 36 835.8 36.8C857.3 37.7 878.7 43.3 889.3 46.2L900 49L900 0L889.3 0C878.7 0 857.3 0 835.8 0C814.3 0 792.7 0 771.2 0C749.7 0 728.3 0 707 0C685.7 0 664.3 0 643 0C621.7 0 600.3 0 578.8 0C557.3 0 535.7 0 514.2 0C492.7 0 471.3 0 450 0C428.7 0 407.3 0 385.8 0C364.3 0 342.7 0 321.2 0C299.7 0 278.3 0 257 0C235.7 0 214.3 0 193 0C171.7 0 150.3 0 128.8 0C107.3 0 85.7 0 64.2 0C42.7 0 21.3 0 10.7 0L0 0Z" fill="#bb9c60"></path><path d="M0 26L10.7 24.8C21.3 23.7 42.7 21.3 64.2 23C85.7 24.7 107.3 30.3 128.8 32.8C150.3 35.3 171.7 34.7 193 34.5C214.3 34.3 235.7 34.7 257 34.7C278.3 34.7 299.7 34.3 321.2 34.8C342.7 35.3 364.3 36.7 385.8 36.5C407.3 36.3 428.7 34.7 450 31.7C471.3 28.7 492.7 24.3 514.2 25C535.7 25.7 557.3 31.3 578.8 31.8C600.3 32.3 621.7 27.7 643 27C664.3 26.3 685.7 29.7 707 31.3C728.3 33 749.7 33 771.2 31.2C792.7 29.3 814.3 25.7 835.8 25.7C857.3 25.7 878.7 29.3 889.3 31.2L900 33L900 0L889.3 0C878.7 0 857.3 0 835.8 0C814.3 0 792.7 0 771.2 0C749.7 0 728.3 0 707 0C685.7 0 664.3 0 643 0C621.7 0 600.3 0 578.8 0C557.3 0 535.7 0 514.2 0C492.7 0 471.3 0 450 0C428.7 0 407.3 0 385.8 0C364.3 0 342.7 0 321.2 0C299.7 0 278.3 0 257 0C235.7 0 214.3 0 193 0C171.7 0 150.3 0 128.8 0C107.3 0 85.7 0 64.2 0C42.7 0 21.3 0 10.7 0L0 0Z" fill="#9b6d2f"></path><path d="M0 18L10.7 17.3C21.3 16.7 42.7 15.3 64.2 16.2C85.7 17 107.3 20 128.8 20.5C150.3 21 171.7 19 193 18.7C214.3 18.3 235.7 19.7 257 19.5C278.3 19.3 299.7 17.7 321.2 17.3C342.7 17 364.3 18 385.8 17.3C407.3 16.7 428.7 14.3 450 12.3C471.3 10.3 492.7 8.7 514.2 10.3C535.7 12 557.3 17 578.8 17.7C600.3 18.3 621.7 14.7 643 12.8C664.3 11 685.7 11 707 10.5C728.3 10 749.7 9 771.2 10.3C792.7 11.7 814.3 15.3 835.8 16.7C857.3 18 878.7 17 889.3 16.5L900 16L900 0L889.3 0C878.7 0 857.3 0 835.8 0C814.3 0 792.7 0 771.2 0C749.7 0 728.3 0 707 0C685.7 0 664.3 0 643 0C621.7 0 600.3 0 578.8 0C557.3 0 535.7 0 514.2 0C492.7 0 471.3 0 450 0C428.7 0 407.3 0 385.8 0C364.3 0 342.7 0 321.2 0C299.7 0 278.3 0 257 0C235.7 0 214.3 0 193 0C171.7 0 150.3 0 128.8 0C107.3 0 85.7 0 64.2 0C42.7 0 21.3 0 10.7 0L0 0Z" fill="#7b3f00"></path></svg>