<svg id="visual" viewBox="0 0 900 100" width="900" height="100" xmlns="http://www.w3.org/2000/svg" xmlns:xlink="http://www.w3.org/1999/xlink" version="1.1"><path d="M0 17L10.7 16.3C21.3 15.7 42.7 14.3 64.2 15C85.7 15.7 107.3 18.3 128.8 18.5C150.3 18.7 171.7 16.3 193 14.5C214.3 12.7 235.7 11.3 257 10.2C278.3 9 299.7 8 321.2 7.8C342.7 7.7 364.3 8.3 385.8 9.7C407.3 11 428.7 13 450 12.7C471.3 12.3 492.7 9.7 514.2 10.7C535.7 11.7 557.3 16.3 578.8 18.2C600.3 20 621.7 19 643 17.3C664.3 15.7 685.7 13.3 707 12.5C728.3 11.7 749.7 12.3 771.2 13.2C792.7 14 814.3 15 835.8 14C857.3 13 878.7 10 889.3 8.5L900 7L900 0L889.3 0C878.7 0 857.3 0 835.8 0C814.3 0 792.7 0 771.2 0C749.7 0 728.3 0 707 0C685.7 0 664.3 0 643 0C621.7 0 600.3 0 578.8 0C557.3 0 535.7 0 514.2 0C492.7 0 471.3 0 450 0C428.7 0 407.3 0 385.8 0C364.3 0 342.7 0 321.2 0C299.7 0 278.3 0 257 0C235.7 0 214.3 0 193 0C171.7 0 150.3 0 128.8 0C107.3 0 85.7 0 64.2 0C42.7 0 21.3 0 10.7 0L0 0Z" fill="#fffdd0"></path><path d="M0 25L10.7 25.2C21.3 25.3 42.7 25.7 64.2 26.3C85.7 27 107.3 28 128.8 27.3C150.3 26.7 171.7 24.3 193 23.7C214.3 23 235.7 24 257 24C278.3 24 299.7 23 321.2 22C342.7 21 364.3 20 385.8 19.8C407.3 19.7 428.7 20.3 450 19.8C471.3 19.3 492.7 17.7 514.2 19C535.7 20.3 557.3 24.7 578.8 27C600.3 29.3 621.7 29.7 643 28.8C664.3 28 685.7 26 707 24.8C728.3 23.7 749.7 23.3 771.2 23.7C792.7 24 814.3 25 835.8 24.3C857.3 23.7 878.7 21.3 889.3 20.2L900 19L900 5L889.3 6.5C878.7 8 857.3 11 835.8 12C814.3 13 792.7 12 771.2 11.2C749.7 10.3 728.3 9.7 707 10.5C685.7 11.3 664.3 13.7 643 15.3C621.7 17 600.3 18 578.8 16.2C557.3 14.3 535.7 9.7 514.2 8.7C492.7 7.7 471.3 10.3 450 10.7C428.7 11 407.3 9 385.8 7.7C364.3 6.3 342.7 5.7 321.2 5.8C299.7 6 278.3 7 257 8.2C235.7 9.3 214.3 10.7 193 12.5C171.7 14.3 150.3 16.7 128.8 16.5C107.3 16.3 85.7 13.7 64.2 13C42.7 12.3 21.3 13.7 10.7 14.3L0 15Z" fill="#e2d6a1"></path><path d="M0 39L10.7 38.3C21.3 37.7 42.7 36.3 64.2 35.7C85.7 35 107.3 35 128.8 35.2C150.3 35.3 171.7 35.7 193 35.5C214.3 35.3 235.7 34.7 257 33.3C278.3 32 299.7 30 321.2 29.7C342.7 29.3 364.3 30.7 385.8 31.8C407.3 33 428.7 34 450 33.7C471.3 33.3 492.7 31.7 514.2 31.5C535.7 31.3 557.3 32.7 578.8 33.7C600.3 34.7 621.7 35.3 643 35.3C664.3 35.3 685.7 34.7 707 34C728.3 33.3 749.7 32.7 771.2 32.5C792.7 32.3 814.3 32.7 835.8 32.3C857.3 32 878.7 31 889.3 30.5L900 30L900 17L889.3 18.2C878.7 19.3 857.3 21.7 835.8 22.3C814.3 23 792.7 22 771.2 21.7C749.7 21.3 728.3 21.7 707 22.8C685.7 24 664.3 26 643 26.8C621.7 27.7 600.3 27.3 578.8 25C557.3 22.7 535.7 18.3 514.2 17C492.7 15.7 471.3 17.3 450 17.8C428.7 18.3 407.3 17.7 385.8 17.8C364.3 18 342.7 19 321.2 20C299.7 21 278.3 22 257 22C235.7 22 214.3 21 193 21.7C171.7 22.3 150.3 24.7 128.8 25.3C107.3 26 85.7 25 64.2 24.3C42.7 23.7 21.3 23.3 10.7 23.2L0 23Z" fill="#c8af75"></path><path d="M0 63L10.7 63C21.3 63 42.7 63 64.2 61.2C85.7 59.3 107.3 55.7 128.8 54.3C150.3 53 171.7 54 193 53.3C214.3 52.7 235.7 50.3 257 52.3C278.3 54.3 299.7 60.7 321.2 62.8C342.7 65 364.3 63 385.8 62C407.3 61 428.7 61 450 58.5C471.3 56 492.7 51 514.2 51.5C535.7 52 557.3 58 578.8 60.7C600.3 63.3 621.7 62.7 643 60.5C664.3 58.3 685.7 54.7 707 52.3C728.3 50 749.7 49 771.2 50.3C792.7 51.7 814.3 55.3 835.8 57.7C857.3 60 878.7 61 889.3 61.5L900 62L900 28L889.3 28.5C878.7 29 857.3 30 835.8 30.3C814.3 30.7 792.7 30.3 771.2 30.5C749.7 30.7 728.3 31.3 707 32C685.7 32.7 664.3 33.3 643 33.3C621.7 33.3 600.3 32.7 578.8 31.7C557.3 30.7 535.7 29.3 514.2 29.5C492.7 29.7 471.3 31.3 450 31.7C428.7 32 407.3 31 385.8 29.8C364.3 28.7 342.7 27.3 321.2 27.7C299.7 28 278.3 30 257 31.3C235.7 32.7 214.3 33.3 193 33.5C171.7 33.7 150.3 33.3 128.8 33.2C107.3 33 85.7 33 64.2 33.7C42.7 34.3 21.3 35.7 10.7 36.3L0 37Z" fill="#ae894c"></path><path d="M0 89L10.7 89.5C21.3 90 42.7 91 64.2 90C85.7 89 107.3 86 128.8 83.8C150.3 81.7 171.7 80.3 193 79.8C214.3 79.3 235.7 79.7 257 80C278.3 80.3 299.7 80.7 321.2 82.7C342.7 84.7 364.3 88.3 385.8 89.7C407.3 91 428.7 90 450 88.2C471.3 86.3 492.7 83.7 514.2 81.7C535.7 79.7 557.3 78.3 578.8 78.3C600.3 78.3 621.7 79.7 643 82.3C664.3 85 685.7 89 707 89.3C728.3 89.7 749.7 86.3 771.2 84.5C792.7 82.7 814.3 82.3 835.8 83.7C857.3 85 878.7 88 889.3 89.5L900 91L900 60L889.3 59.5C878.7 59 857.3 58 835.8 55.7C814.3 53.3 792.7 49.7 771.2 48.3C749.7 47 728.3 48 707 50.3C685.7 52.7 664.3 56.3 643 58.5C621.7 60.7 600.3 61.3 578.8 58.7C557.3 56 535.7 50 514.2 49.5C492.7 49 471.3 54 450 56.5C428.7 59 407.3 59 385.8 60C364.3 61 342.7 63 321.2 60.8C299.7 58.7 278.3 52.3 257 50.3C235.7 48.3 214.3 50.7 193 51.3C171.7 52 150.3 51 128.8 52.3C107.3 53.7 85.7 57.3 64.2 59.2C42.7 61 21.3 61 10.7 61L0 61Z" fill="#956426"></path><path d="M0 101L10.7 101C21.3 101 42.7 101 64.2 101C85.7 101 107.3 101 128.8 101C150.3 101 171.7 101 193 101C214.3 101 235.7 101 257 101C278.3 101 299.7 101 321.2 101C342.7 101 364.3 101 385.8 101C407.3 101 428.7 101 450 101C471.3 101 492.7 101 514.2 101C535.7 101 557.3 101 578.8 101C600.3 101 621.7 101 643 101C664.3 101 685.7 101 707 101C728.3 101 749.7 101 771.2 101C792.7 101 814.3 101 835.8 101C857.3 101 878.7 101 889.3 101L900 101L900 89L889.3 87.5C878.7 86 857.3 83 835.8 81.7C814.3 80.3 792.7 80.7 771.2 82.5C749.7 84.3 728.3 87.7 707 87.3C685.7 87 664.3 83 643 80.3C621.7 77.7 600.3 76.3 578.8 76.3C557.3 76.3 535.7 77.7 514.2 79.7C492.7 81.7 471.3 84.3 450 86.2C428.7 88 407.3 89 385.8 87.7C364.3 86.3 342.7 82.7 321.2 80.7C299.7 78.7 278.3 78.3 257 78C235.7 77.7 214.3 77.3 193 77.8C171.7 78.3 150.3 79.7 128.8 81.8C107.3 84 85.7 87 64.2 88C42.7 89 21.3 88 10.7 87.5L0 87Z" fill="#7b3f00"></path></svg>