<svg id="visual" viewBox="0 0 900 100" width="900" height="100" xmlns="http://www.w3.org/2000/svg" xmlns:xlink="http://www.w3.org/1999/xlink" version="1.1"><rect x="0" y="0" width="900" height="100" fill="#fff"></rect><path d="M0 79L21.5 79.2C43 79.3 86 79.7 128.8 79.3C171.7 79 214.3 78 257.2 74.3C300 70.7 343 64.3 385.8 61.5C428.7 58.7 471.3 59.3 514.2 60.3C557 61.3 600 62.7 642.8 66.3C685.7 70 728.3 76 771.2 77.8C814 79.7 857 77.3 878.5 76.2L900 75L900 0L878.5 0C857 0 814 0 771.2 0C728.3 0 685.7 0 642.8 0C600 0 557 0 514.2 0C471.3 0 428.7 0 385.8 0C343 0 300 0 257.2 0C214.3 0 171.7 0 128.8 0C86 0 43 0 21.5 0L0 0Z" fill="#d27d2d"></path><path d="M0 63L21.5 59C43 55 86 47 128.8 45.7C171.7 44.3 214.3 49.7 257.2 50.7C300 51.7 343 48.3 385.8 46C428.7 43.7 471.3 42.3 514.2 45.2C557 48 600 55 642.8 54.7C685.7 54.3 728.3 46.7 771.2 45.7C814 44.7 857 50.3 878.5 53.2L900 56L900 0L878.5 0C857 0 814 0 771.2 0C728.3 0 685.7 0 642.8 0C600 0 557 0 514.2 0C471.3 0 428.7 0 385.8 0C343 0 300 0 257.2 0C214.3 0 171.7 0 128.8 0C86 0 43 0 21.5 0L0 0Z" fill="#bc6d22"></path><path d="M0 51L21.5 47.8C43 44.7 86 38.3 128.8 36.5C171.7 34.7 214.3 37.3 257.2 40.5C300 43.7 343 47.3 385.8 46.8C428.7 46.3 471.3 41.7 514.2 38.5C557 35.3 600 33.7 642.8 33.3C685.7 33 728.3 34 771.2 37.3C814 40.7 857 46.3 878.5 49.2L900 52L900 0L878.5 0C857 0 814 0 771.2 0C728.3 0 685.7 0 642.8 0C600 0 557 0 514.2 0C471.3 0 428.7 0 385.8 0C343 0 300 0 257.2 0C214.3 0 171.7 0 128.8 0C86 0 43 0 21.5 0L0 0Z" fill="#a65d16"></path><path d="M0 20L21.5 20.3C43 20.7 86 21.3 128.8 22.3C171.7 23.3 214.3 24.7 257.2 26.8C300 29 343 32 385.8 32.3C428.7 32.7 471.3 30.3 514.2 28.3C557 26.3 600 24.7 642.8 24.5C685.7 24.3 728.3 25.7 771.2 25.8C814 26 857 25 878.5 24.5L900 24L900 0L878.5 0C857 0 814 0 771.2 0C728.3 0 685.7 0 642.8 0C600 0 557 0 514.2 0C471.3 0 428.7 0 385.8 0C343 0 300 0 257.2 0C214.3 0 171.7 0 128.8 0C86 0 43 0 21.5 0L0 0Z" fill="#904e0a"></path><path d="M0 22L21.5 21.5C43 21 86 20 128.8 18.5C171.7 17 214.3 15 257.2 14.8C300 14.7 343 16.3 385.8 16.5C428.7 16.7 471.3 15.3 514.2 15.5C557 15.7 600 17.3 642.8 17.2C685.7 17 728.3 15 771.2 14.5C814 14 857 15 878.5 15.5L900 16L900 0L878.5 0C857 0 814 0 771.2 0C728.3 0 685.7 0 642.8 0C600 0 557 0 514.2 0C471.3 0 428.7 0 385.8 0C343 0 300 0 257.2 0C214.3 0 171.7 0 128.8 0C86 0 43 0 21.5 0L0 0Z" fill="#7b3f00"></path></svg>